<?xml version="1.0" encoding="UTF-8"?>
<svg width="70px" height="49px" viewBox="0 0 70 49" version="1.1" xmlns="http://www.w3.org/2000/svg" xmlns:xlink="http://www.w3.org/1999/xlink">
    <!-- Generator: Sketch 52.5 (67469) - http://www.bohemiancoding.com/sketch -->
    <title>arrow right</title>
    <desc>Created with Sketch.</desc>
    <g id="degustation" stroke="none" stroke-width="1" fill="none" fill-rule="evenodd">
        <g id="Desktop-HD" transform="translate(-1135.000000, -2245.000000)">
            <g id="main" transform="translate(135.000000, 320.000000)">
                <g id="next" transform="translate(800.000000, 1925.000000)">
                    <g id="arrow-right" transform="translate(235.000000, 24.500000) scale(-1, 1) translate(-235.000000, -24.500000) translate(200.000000, 0.000000)">
                        <rect id="Rectangle" fill="#D1D13D" x="0" y="0" width="70" height="49"></rect>
                        <g id="icon-arrow" transform="translate(26.000000, 9.900000)" fill="#FFFFFF">
                            <path d="M17.3523845,16.5851543 L3.77482194,29.4842772 C2.91112496,30.3052409 1.51078835,30.3052409 0.647510672,29.4842772 C-0.215836891,28.6640438 -0.215836891,27.3337041 0.647510672,26.5135371 L12.6615574,15.0997842 L0.647860092,3.6864297 C-0.21548747,2.86586433 -0.21548747,1.53565742 0.647860092,0.715424026 C1.51120765,-0.105141342 2.91147438,-0.105141342 3.77517136,0.715424026 L17.3527339,13.6147461 C17.7844077,14.025062 18,14.5622571 18,15.0997178 C18,15.6374441 17.7839884,16.1750376 17.3523845,16.5851543 Z" id="Path"></path>
                        </g>
                    </g>
                </g>
            </g>
        </g>
    </g>
</svg>