<?xml version="1.0" encoding="UTF-8"?>
<svg width="30px" height="30px" viewBox="0 0 30 30" version="1.1" xmlns="http://www.w3.org/2000/svg" xmlns:xlink="http://www.w3.org/1999/xlink">
    <!-- Generator: Sketch 52.5 (67469) - http://www.bohemiancoding.com/sketch -->
    <title>icon-twitter/</title>
    <desc>Created with Sketch.</desc>
    <g id="icon-twitter/" stroke="none" stroke-width="1" fill="none" fill-rule="evenodd">
        <g id="icon-twitter" fill="#716767" fill-rule="nonzero">
            <path d="M28.343,0 L1.656,0 C0.742,0 0,0.742 0,1.656 L0,28.343 C0,29.259 0.742,30 1.656,30 L28.343,30 C29.259,30 30,29.259 30,28.343 L30,1.656 C30,0.742 29.259,0 28.343,0 Z M22.456,11.176 C22.467,11.342 22.467,11.507 22.467,11.674 C22.467,16.758 18.597,22.619 11.522,22.619 L11.522,22.616 C9.432,22.619 7.385,22.02 5.625,20.891 C5.929,20.926 6.234,20.947 6.541,20.947 C8.273,20.949 9.957,20.367 11.318,19.297 C9.672,19.267 8.228,18.192 7.725,16.624 C8.302,16.736 8.895,16.714 9.462,16.56 C7.667,16.196 6.377,14.62 6.376,12.789 C6.376,12.772 6.376,12.756 6.376,12.74 C6.911,13.038 7.509,13.203 8.123,13.222 C6.433,12.093 5.911,9.844 6.932,8.086 C8.885,10.489 11.766,11.95 14.86,12.105 C14.55,10.769 14.975,9.37 15.974,8.429 C17.522,6.972 19.96,7.047 21.417,8.596 C22.279,8.427 23.105,8.111 23.859,7.662 C23.572,8.553 22.971,9.308 22.168,9.79 C22.931,9.701 23.675,9.496 24.377,9.185 C23.858,9.958 23.209,10.632 22.456,11.176 Z" id="Shape"></path>
        </g>
    </g>
</svg>