<?xml version="1.0" encoding="UTF-8"?>
<svg width="55px" height="55px" viewBox="0 0 55 55" version="1.1" xmlns="http://www.w3.org/2000/svg" xmlns:xlink="http://www.w3.org/1999/xlink">
    <!-- Generator: Sketch 51.3 (57544) - http://www.bohemiancoding.com/sketch -->
    <title>grapes</title>
    <desc>Created with Sketch.</desc>
    <defs></defs>
    <g id="home" stroke="none" stroke-width="1" fill="none" fill-rule="evenodd">
        <g id="Desktop-HD" transform="translate(-843.000000, -1888.000000)" fill="#716767">
            <g id="main" transform="translate(0.000000, 765.000000)">
                <g id="degustation" transform="translate(135.000000, 1070.000000)">
                    <g id="degustation-img" transform="translate(600.000000, 0.000000)">
                        <g id="degustation-hover-img4">
                            <g id="grapes" transform="translate(108.000000, 52.980942)">
                                <path d="M54.999799,27.6607945 C54.999799,25.0932195 53.1635193,22.9338781 50.7258848,22.4504435 C50.4359459,19.7969245 48.1808655,17.723527 45.4532922,17.723527 C43.7243972,17.723527 42.1887949,18.5507374 41.2223319,19.8398964 C40.4706384,18.8515412 39.3860522,18.1317607 38.1296503,17.8524429 C38.4518046,15.5212137 39.9229761,13.4478163 42.0706716,12.416489 L42.843842,12.0404843 C42.8545805,12.0404843 42.8545805,12.0297413 42.865319,12.0297413 C44.5942139,13.2114704 46.4627091,14.1998257 48.4493275,14.9840641 L51.6601324,16.2409941 C51.7889941,16.2947091 51.9178558,16.3161951 52.0467176,16.3161951 C52.4762567,16.3161951 52.8843188,16.0583633 53.045396,15.6393866 L54.9246296,10.8372692 C55.0320144,10.5686944 55.0212759,10.2786336 54.9138912,10.0100588 C54.7957679,9.75222704 54.5917368,9.54811019 54.3232749,9.44068027 L51.11247,8.18375022 C47.1929256,6.63675939 43.8747359,3.9724974 41.5122708,0.481025029 C41.3511936,0.244679207 41.1042086,0.0835343282 40.8250082,0.0298193687 C40.5458078,-0.0238955908 40.2558689,0.0298193687 40.0196224,0.190964247 L35.7457082,3.07008608 C35.2517382,3.40311883 35.1228765,4.06918432 35.4557693,4.56336195 C36.9913716,6.84087623 38.8383898,8.86055871 40.9216545,10.5794374 C38.1511272,11.9975123 36.2826321,14.7584613 35.9497393,17.820214 C34.9403223,18.0135878 34.0382902,18.4970224 33.3188122,19.1845739 C33.2973352,19.109373 33.2651198,19.044915 33.2221659,18.9697141 L32.5671187,17.820214 C32.2664414,17.2938074 31.9228101,16.7996297 31.5362249,16.3376811 C32.5671187,16.1980222 33.651705,15.7575595 34.7470297,14.7477183 C36.2933706,13.3189004 36.4114938,10.8909842 35.0047532,9.34399335 C33.7913052,8.00111936 31.718779,7.90443243 30.3764693,9.11839052 C29.9361917,9.51588122 29.9039762,10.1926897 30.3012999,10.6331524 C30.6986236,11.073615 31.3751477,11.105844 31.8154253,10.7083533 C32.2771798,10.2893766 32.9966578,10.3216056 33.4154585,10.7835543 C34.0382902,11.4603628 33.9738593,12.5346619 33.2865968,13.1684985 C31.7617329,14.5758304 30.4516386,14.3609706 28.4972356,13.834564 C27.2515722,13.1470125 25.877047,12.7065498 24.438091,12.5668909 C25.2756923,11.4066478 26.1025551,9.71999806 25.9307394,7.75403055 C25.6944929,5.05753958 23.6756591,2.65110939 19.9494072,0.577711956 C19.4876527,0.31988015 18.9077749,0.438053061 18.5856206,0.857029745 C18.145343,1.42640832 17.8017117,1.92058594 17.5547267,2.36104861 C17.2433108,2.04950185 16.8782026,1.72721209 16.437925,1.42640832 C14.9237996,0.384338101 12.303611,-0.625503137 8.39480507,0.481025029 C7.89009661,0.620683923 7.5572038,1.11486155 7.62163466,1.64126815 C7.8471427,3.5642637 8.4270205,5.0253106 9.09280613,6.09960979 C8.77065179,6.11035278 8.43775898,6.14258176 8.09412769,6.19629672 C5.02292302,6.71196033 2.34904203,8.97873162 0.136915593,12.9214096 C-0.0456385309,13.2436994 -0.0456385309,13.6519331 0.136915593,13.9742229 C2.34904203,17.9169009 5.0336615,20.1836722 8.09412769,20.6993358 C8.43775898,20.7530507 8.77065179,20.7852797 9.09280613,20.7960227 C8.4270205,21.8810649 7.83640422,23.3421118 7.62163466,25.2543644 C7.5572038,25.780771 7.89009661,26.2642056 8.39480507,26.4146075 C9.59751459,26.7583832 10.6928393,26.8980421 11.6593023,26.8980421 C13.8284749,26.8980421 15.3962926,26.1890046 16.437925,25.4692242 C16.8782026,25.1684204 17.2433108,24.8461307 17.5547267,24.5345839 C17.8124502,24.9750466 18.145343,25.4692242 18.5856206,26.0386028 C18.7144823,26.2104906 18.8970364,26.3286635 19.090329,26.3931215 C18.9936827,26.7906122 18.9399903,27.1988459 18.9399903,27.6285656 C18.9399903,30.3357995 20.9803011,32.5810848 23.6004897,32.9033746 C23.3320278,33.5372111 23.1816891,34.2462486 23.1816891,34.976772 C23.1816891,37.684006 25.2219999,39.9292913 27.852927,40.251581 C27.584465,40.8854176 27.4341263,41.594455 27.4341263,42.3249785 C27.4341263,45.0322124 29.4744371,47.2774977 32.0946257,47.5997875 C31.8261638,48.233624 31.6758251,48.9319185 31.6758251,49.6731849 C31.6758251,52.6060217 34.0597672,54.9802229 36.9806331,54.9802229 C39.9014991,54.9802229 42.2854412,52.5952787 42.2854412,49.6731849 C42.2854412,48.9426615 42.1351025,48.244367 41.8666406,47.5997875 C44.4868292,47.2774977 46.52714,45.0322124 46.52714,42.3249785 C46.52714,41.583712 46.3768013,40.8854176 46.1083393,40.251581 C48.7285279,39.9292913 50.7581002,37.684006 50.7581002,34.976772 C50.7581002,34.2462486 50.6077615,33.5372111 50.3392996,32.9033746 C52.9594882,32.6133138 54.999799,30.3680285 54.999799,27.6607945 Z M37.8611883,4.24107219 L40.3525152,2.55442247 C42.8975344,5.98143688 46.3338474,8.60272691 50.3285611,10.1712037 L52.5299491,11.0413861 L51.4346243,13.845307 L49.2224979,12.9751246 C44.6586448,11.181045 40.7498389,8.17300723 37.8611883,4.24107219 Z M45.4532922,19.8721254 C46.999633,19.8721254 48.2989888,21.0001396 48.5674507,22.4719294 C47.3003104,22.7405042 46.2049856,23.4710277 45.4532922,24.459383 C44.7015987,23.4602847 43.606274,22.7405042 42.3391336,22.4719294 C42.6075955,20.9893966 43.9069514,19.8721254 45.4532922,19.8721254 Z M25.1897844,22.4289575 C25.4689849,20.9679106 26.7576022,19.8721254 28.2932045,19.8721254 C29.8610223,19.8721254 31.1711166,21.0216255 31.4181016,22.5256444 C30.2476075,22.8264482 29.2274521,23.5247427 28.5187126,24.4701259 C27.7133267,23.4065697 26.5320942,22.6653033 25.1897844,22.4289575 Z M30.1724382,18.0673028 C29.5818219,17.8416999 28.9482517,17.723527 28.2824661,17.723527 C27.4448648,17.723527 26.6609559,17.9169009 25.9629548,18.2606766 C25.877047,16.8963167 25.3401231,15.7038446 24.7387684,14.7692043 C26.9079409,15.11298 28.8623439,16.3054521 30.1724382,18.0673028 Z M36.9806331,38.1674406 C35.2409997,38.1674406 33.8235206,36.7493657 33.8235206,35.009001 C33.8235206,33.2686363 35.2409997,31.8505614 36.9806331,31.8505614 C38.7202665,31.8505614 40.1377456,33.2686363 40.1377456,35.009001 C40.1377456,36.7493657 38.7202665,38.1674406 36.9806331,38.1674406 Z M32.7496729,30.8192342 C31.0100394,30.8192342 29.5925604,29.4011592 29.5925604,27.6607945 C29.5925604,25.9204298 31.0100394,24.5023549 32.7496729,24.5023549 C34.4893063,24.5023549 35.9067853,25.9204298 35.9067853,27.6607945 C35.9067853,29.4011592 34.4893063,30.8192342 32.7496729,30.8192342 Z M41.2223319,30.8192342 C39.4826985,30.8192342 38.0652194,29.4011592 38.0652194,27.6607945 C38.0652194,25.9204298 39.4826985,24.5023549 41.2223319,24.5023549 C42.9619653,24.5023549 44.3794444,25.9204298 44.3794444,27.6607945 C44.3794444,29.4011592 42.9619653,30.8192342 41.2223319,30.8192342 Z M36.9806331,19.8721254 C38.5269739,19.8721254 39.8263298,21.0001396 40.0947917,22.4719294 C38.8383898,22.7405042 37.7323266,23.4710277 36.9806331,24.459383 C36.2289397,23.4602847 35.1336149,22.7405042 33.8664746,22.4719294 C34.1349365,20.9893966 35.4342923,19.8721254 36.9806331,19.8721254 Z M18.1775584,21.3439153 C17.6728499,21.2042564 17.1466645,21.4406022 16.9211565,21.9132939 C16.9211565,21.9240369 16.416448,22.9231351 15.2352155,23.7396025 C13.7962594,24.7279577 12.0136721,25.0180185 9.91966892,24.6097848 C10.596193,21.3761443 12.5398575,20.1729292 12.776104,20.0332703 C13.291551,19.7432095 13.4633666,19.09863 13.1841662,18.5829664 C12.8942273,18.0673028 12.2499186,17.8739289 11.7344717,18.1532467 C11.2082863,18.4325645 6.62295622,20.6241348 2.32756508,13.4693022 C6.61221774,6.31446963 11.2082863,8.50603998 11.7344717,8.78535777 C12.2499186,9.06467556 12.8942273,8.8713017 13.1841662,8.35563809 C13.4741051,7.83997448 13.291551,7.19539497 12.776104,6.90533419 C12.5398575,6.76567529 10.596193,5.57320319 9.91966892,2.33956263 C15.0097074,1.34046438 16.8459871,4.87490872 16.9211565,5.0253106 C17.1466645,5.49800225 17.6835884,5.73434807 18.1775584,5.59468917 C18.6500514,5.46577327 18.9722058,5.0253106 18.9614673,4.54187597 C18.9722058,4.46667502 19.0688521,3.95101141 19.7453762,2.94117017 C22.2796569,4.50964699 23.6541821,6.18555373 23.8152593,7.93666141 C24.0085519,10.0208018 22.4299956,11.7719095 21.7964254,12.395003 L20.4863311,12.395003 L17.7372808,9.64479712 C17.3184802,9.22582044 16.6419561,9.22582044 16.2231554,9.64479712 C15.8043548,10.0637738 15.8043548,10.7405823 16.2231554,11.159559 L17.4580804,12.395003 L13.0123505,12.395003 C12.4217343,12.395003 11.9385028,12.8784377 11.9385028,13.4693022 C11.9385028,14.0601668 12.4217343,14.5436014 13.0123505,14.5436014 L17.4580804,14.5436014 L15.8043548,16.1980222 C15.3855542,16.6169989 15.3855542,17.2938074 15.8043548,17.712784 C16.0191244,17.9276439 16.2875863,18.0243308 16.5667867,18.0243308 C16.8459871,18.0243308 17.1144491,17.9169009 17.3292186,17.712784 L20.4970696,14.5436014 L21.8071639,14.5436014 C22.4514726,15.166695 24.0192904,16.9178026 23.8259978,19.0019431 C23.6649206,20.7530507 22.3011339,22.4289575 19.7561146,23.9974343 C19.0795905,22.9875931 18.9829442,22.4826724 18.9722058,22.3967285 C18.9722058,21.9132939 18.6500514,21.4728312 18.1775584,21.3439153 Z M21.1091629,27.6607945 C21.1091629,25.9204298 22.5266419,24.5023549 24.2662753,24.5023549 C26.0059088,24.5023549 27.4233878,25.9204298 27.4233878,27.6607945 C27.4233878,29.4011592 26.0059088,30.8192342 24.2662753,30.8192342 C22.5266419,30.8192342 21.1091629,29.4011592 21.1091629,27.6607945 Z M25.3508616,35.009001 C25.3508616,33.2686363 26.7683407,31.8505614 28.5079741,31.8505614 C30.2476075,31.8505614 31.6650866,33.2686363 31.6650866,35.009001 C31.6650866,36.7493657 30.2476075,38.1674406 28.5079741,38.1674406 C26.7683407,38.1674406 25.3508616,36.7493657 25.3508616,35.009001 Z M29.5925604,42.3572075 C29.5925604,40.6168428 31.0100394,39.1987678 32.7496729,39.1987678 C34.4893063,39.1987678 35.9067853,40.6168428 35.9067853,42.3572075 C35.9067853,44.0975721 34.4893063,45.5156471 32.7496729,45.5156471 C31.0100394,45.5156471 29.5925604,44.0975721 29.5925604,42.3572075 Z M36.9913716,52.8638535 C35.2517382,52.8638535 33.8342591,51.4457786 33.8342591,49.7054139 C33.8342591,47.9650492 35.2517382,46.5469743 36.9913716,46.5469743 C38.731005,46.5469743 40.1484841,47.9650492 40.1484841,49.7054139 C40.1592226,51.4350356 38.7417435,52.8638535 36.9913716,52.8638535 Z M41.2330704,45.5156471 C39.493437,45.5156471 38.0759579,44.0975721 38.0759579,42.3572075 C38.0759579,40.6168428 39.4826985,39.1880248 41.2330704,39.1880248 C42.9834423,39.1880248 44.3901829,40.6060998 44.3901829,42.3464645 C44.3901829,44.0868292 42.9727038,45.5156471 41.2330704,45.5156471 Z M45.4532922,38.1674406 C43.7136588,38.1674406 42.2961797,36.7493657 42.2961797,35.009001 C42.2961797,33.2686363 43.7136588,31.8505614 45.4532922,31.8505614 C47.1929256,31.8505614 48.6104047,33.2686363 48.6104047,35.009001 C48.6104047,36.7493657 47.1929256,38.1674406 45.4532922,38.1674406 Z M49.6949909,30.8192342 C47.9553575,30.8192342 46.5378784,29.4011592 46.5378784,27.6607945 C46.5378784,25.9204298 47.9553575,24.5023549 49.6949909,24.5023549 C51.4346243,24.5023549 52.8521034,25.9204298 52.8521034,27.6607945 C52.8521034,29.4011592 51.4346243,30.8192342 49.6949909,30.8192342 Z" id="Shape" fill-rule="nonzero"></path>
                                <path d="M8,12.9953254 C7.74,12.9953254 7.48,13.1052859 7.29,13.2852211 C7.1,13.4751528 7,13.7250629 7,13.9949658 C7,14.2648688 7.11,14.5147789 7.29,14.7047105 C7.48,14.8946422 7.73,14.9946063 8,14.9946063 C8.26,14.9946063 8.52,14.8846458 8.71,14.7047105 C8.9,14.5147789 9,14.2648688 9,13.9949658 C9,13.7250629 8.89,13.4751528 8.71,13.2852211 C8.52,13.0952895 8.26,12.9953254 8,12.9953254 Z" id="Path"></path>
                            </g>
                        </g>
                    </g>
                </g>
            </g>
        </g>
    </g>
</svg>