<?xml version="1.0" encoding="UTF-8"?>
<svg width="30px" height="30px" viewBox="0 0 30 30" version="1.1" xmlns="http://www.w3.org/2000/svg" xmlns:xlink="http://www.w3.org/1999/xlink">
    <!-- Generator: Sketch 52.5 (67469) - http://www.bohemiancoding.com/sketch -->
    <title>icon-instagram/hover</title>
    <desc>Created with Sketch.</desc>
    <g id="icon-instagram/hover" stroke="none" stroke-width="1" fill="none" fill-rule="evenodd">
        <g id="icon-instagram" fill="#D1D13D">
            <path d="M25.6054688,0 L4.39453125,0 C1.97158816,0 0,1.97158816 0,4.39453125 L0,25.6054688 C0,28.0284118 1.97158816,30 4.39453125,30 L25.6054688,30 C28.0284118,30 30,28.0284118 30,25.6054688 L30,4.39453125 C30,1.97158816 28.0284118,0 25.6054688,0 Z M14.5,22 C10.3643663,22 7,18.6356337 7,14.5 C7,10.3643663 10.3643663,7 14.5,7 C18.6356337,7 22,10.3643663 22,14.5 C22,18.6356337 18.6356337,22 14.5,22 Z M23.5,8 C22.1215278,8 21,6.87847222 21,5.5 C21,4.12152778 22.1215278,3 23.5,3 C24.8784722,3 26,4.12152778 26,5.5 C26,6.87847222 24.8784722,8 23.5,8 Z" id="Shape" fill-rule="nonzero"></path>
            <path d="M14.5,10 C12.0189732,10 10,12.0189732 10,14.5 C10,16.9810268 12.0189732,19 14.5,19 C16.9810268,19 19,16.9810268 19,14.5 C19,12.0189732 16.9810268,10 14.5,10 Z" id="Path"></path>
        </g>
    </g>
</svg>