<?xml version="1.0" encoding="UTF-8"?>
<svg width="70px" height="70px" viewBox="0 0 70 70" version="1.1" xmlns="http://www.w3.org/2000/svg" xmlns:xlink="http://www.w3.org/1999/xlink">
    <!-- Generator: Sketch 52.5 (67469) - http://www.bohemiancoding.com/sketch -->
    <title>picto/icon-field</title>
    <desc>Created with Sketch.</desc>
    <g id="picto/icon-field" stroke="none" stroke-width="1" fill="none" fill-rule="evenodd">
        <g id="icon-field" fill="#000000">
            <path d="M68.6328125,54.8183441 C57.2146606,54.8183441 46.0079956,59.5020295 37.8860474,67.6683044 C37.3530579,68.2039642 37.3557282,69.0696716 37.8908538,69.6015931 C38.1578827,69.8670197 38.5060882,69.999466 38.855362,69.999466 C39.2062378,69.999466 39.5571136,69.8654175 39.8246764,69.5967865 C47.4371338,61.9426727 57.9372406,57.5527191 68.6328125,57.5527191 C69.38797,57.5527191 70,56.9406891 70,56.1855316 C70,55.4309082 69.38797,54.8183441 68.6328125,54.8183441 Z" id="Path"></path>
            <path d="M40.1226807,53.5520934 C39.699707,52.926178 38.8500213,52.7616882 38.22464,53.1846618 C32.3783112,57.1334839 27.4409486,62.074585 23.5487366,67.8701782 C23.1278991,68.4971618 23.2945251,69.3468475 23.9215088,69.7676849 C24.1559601,69.9246979 24.4203187,70 24.6825409,70 C25.1226043,70 25.5551911,69.787445 25.8190155,69.3949128 C29.5136261,63.8925171 34.2021179,59.200821 39.755249,55.4501343 C40.3806305,55.0276947 40.5451203,54.1780091 40.1226807,53.5520934 Z" id="Path"></path>
            <path d="M68.6328125,43.8124847 C62.5205231,43.8124847 56.4707184,44.8565674 50.6516266,46.9158936 C49.9397279,47.1674347 49.5669556,47.9487611 49.8190308,48.6606598 C50.0171662,49.2219544 50.5448151,49.5722962 51.1077118,49.5722962 C51.2588501,49.5722962 51.4126587,49.5466614 51.563797,49.4932555 C57.0891571,47.5380706 62.8318786,46.5468597 68.6328125,46.5468597 C69.38797,46.5468597 70,45.9348297 70,45.1796722 C70,44.4245148 69.38797,43.8124847 68.6328125,43.8124847 Z" id="Path"></path>
            <path d="M19.5886994,60.6182098 C28.5832977,48.8908386 41.6036224,40.7480622 55.9708405,37.6964569 C55.9735107,37.6959229 55.976181,37.6953888 55.9783172,37.6948548 C60.1071167,36.8184662 64.345932,36.361847 68.6328125,36.361847 C69.3874359,36.361847 70,35.7492829 70,34.9946595 C70,34.239502 69.3874359,33.627472 68.6328125,33.627472 C64.7454071,33.627472 60.8729554,33.9831543 57.0661927,34.6790314 L57.0661927,31.7278289 C62.0078278,27.5445557 64.7203063,22.0629883 64.7203063,16.2257386 C64.7203063,10.1903534 61.8209076,4.53521729 56.5556335,0.30174252 C56.0552215,-0.100402832 55.3422546,-0.100402832 54.8418426,0.30174252 C49.5771027,4.53521729 46.6771698,10.1903534 46.6771698,16.2257386 C46.6771698,22.0629883 49.3901825,27.5445557 54.3312835,31.7278289 L54.3312835,35.2381898 C51.7336273,35.8293914 49.1733551,36.5829468 46.6664886,37.4903107 L46.6664886,29.485321 C46.6664886,29.1093444 46.5148163,28.7691497 46.2691497,28.5218812 L46.2691497,28.521347 L38.6128997,20.8197021 C38.3560181,20.5617523 38.0072785,20.4164886 37.6430511,20.4164886 L22.0117188,20.4164886 C21.6480255,20.4164886 21.2987518,20.5617523 21.0424041,20.8197021 L13.3861541,28.521347 L13.3861541,28.5218812 C13.1404876,28.7691497 12.9882812,29.1093444 12.9882812,29.4858551 L12.9882812,34.7068024 C12.0355225,34.5321655 11.0784912,34.3783569 10.1171875,34.2469788 L10.1171875,29.3731689 C13.8539886,26.1586761 15.9042358,21.9663239 15.9042358,17.5 C15.9042358,12.8339386 13.6676025,8.46641537 9.60662842,5.20065301 C9.10621646,4.79850766 8.39378354,4.79850766 7.89337158,5.20065301 C3.83239746,8.46588135 1.59576416,12.8339386 1.59576416,17.5 C1.59576416,21.9657897 3.64601139,26.1581421 7.3828125,29.3726349 L7.3828125,33.9324188 C5.38917545,33.7460327 3.38218686,33.6499023 1.3671875,33.6499023 C0.612029961,33.6499023 0,34.2619323 0,35.0170898 C0,35.7722474 0.612029961,36.3842773 1.3671875,36.3842773 C12.299347,36.3842773 22.9922485,39.2767334 32.4188996,44.7641754 C30.1603698,46.299057 28.0033112,47.9754639 25.9610749,49.7800446 C18.3235169,45.8889007 9.83734131,43.8354492 1.3671875,43.8354492 C0.612564121,43.8354492 0,44.4474792 0,45.2026367 C0,45.9577943 0.612564121,46.5698242 1.3671875,46.5698242 C9.07417301,46.5698242 16.7966462,48.3621216 23.812561,51.7656707 C21.7340088,53.7763978 19.7911071,55.9275817 17.9982757,58.2015991 C12.68013,55.9713745 7.09068295,54.8413086 1.3671875,54.8413086 C0.612564121,54.8413086 0,55.4533386 0,56.2084961 C0,56.9636536 0.612564121,57.5756836 1.3671875,57.5756836 C6.49414062,57.5756836 11.5068054,58.5476685 16.295166,60.461731 C15.3504181,61.7744446 14.4526673,63.1229401 13.6083221,64.5072174 L11.5249634,67.9203796 C11.1313629,68.5644531 11.3353729,69.4061279 11.9794464,69.7991943 C12.2021484,69.9353791 12.4478149,70 12.6908112,70 C13.1511688,70 13.6013794,69.7666169 13.8587952,69.3447113 L15.942154,65.9315491 C17.0284271,64.151535 18.2022858,62.4388122 19.4535827,60.7944489 C19.5027161,60.7399749 19.548645,60.6817627 19.5886994,60.6182098 Z M49.4120788,16.2257386 C49.4120788,11.3663483 51.6353607,6.76330566 55.6990052,3.15628059 C59.7626496,6.76330566 61.9859313,11.3663483 61.9859313,16.2257386 C61.9859313,20.5078125 60.257721,24.5917511 57.0661927,27.9696655 L57.0661927,17.5 C57.0661927,16.7448425 56.4541626,16.1328125 55.6990052,16.1328125 C54.9438477,16.1328125 54.3318177,16.7448425 54.3318177,17.5 L54.3318177,27.9696655 C51.1397552,24.5917511 49.4120788,20.5078125 49.4120788,16.2257386 Z M4.33013916,17.5 C4.33013916,14.0126038 5.89118961,10.7003784 8.75,8.06854248 C11.6088104,10.6998444 13.1698608,14.0126038 13.1698608,17.5 C13.1698608,20.3823089 12.1022796,23.1455231 10.1171875,25.5039215 L10.1171875,16.40625 C10.1171875,15.6510925 9.50515754,15.0390625 8.75,15.0390625 C7.99537662,15.0390625 7.3828125,15.6510925 7.3828125,16.40625 L7.3828125,25.5039215 C5.39772037,23.1455231 4.33013916,20.3823089 4.33013916,17.5 Z M42.0127106,28.1181335 L30.2367401,28.1181335 L25.2988434,23.1508636 L37.0748138,23.1508636 L42.0127106,28.1181335 Z M22.0117188,23.7228394 L26.3813782,28.1181335 L17.6425934,28.1181335 L22.0117188,23.7228394 Z M15.7226562,30.8525085 L28.3007812,30.8525085 L28.3007812,39.5469665 C27.6668548,39.2553711 27.0291901,38.9733887 26.3867188,38.7026214 L26.3867188,34.1107941 C26.3867188,33.3561706 25.7746888,32.7436066 25.0195312,32.7436066 L19.0039062,32.7436066 C18.2492829,32.7436066 17.6367188,33.3561706 17.6367188,34.1107941 L17.6367188,35.7364655 C17.0011901,35.5709076 16.3635254,35.4138947 15.7226562,35.2675628 L15.7226562,30.8525085 Z M23.6523438,37.623825 C22.5682067,37.2243499 21.4744567,36.853714 20.3710938,36.5135192 L20.3710938,35.4779816 L23.6523438,35.4779816 L23.6523438,37.623825 Z M31.0351562,40.8847809 L31.0351562,30.8525085 L43.9326478,30.8525085 L43.9326478,38.5514831 C41.590805,39.5218659 39.3023682,40.6295013 37.0838929,41.8749237 C36.3746644,42.2727966 35.6739808,42.6861572 34.9813079,43.1101989 C33.6888885,42.3208618 32.3729705,41.5785218 31.0351563,40.8847809 Z" id="Shape" fill-rule="nonzero"></path>
            <path d="M55.6990052,13.671875 C56.0584259,13.671875 56.411438,13.5255433 56.6656494,13.2707977 C56.9198608,13.0165863 57.0661927,12.6641082 57.0661927,12.3046875 C57.0661927,11.9447327 56.9203949,11.5922546 56.6656494,11.3380433 C56.411438,11.0832977 56.0584259,10.9375 55.6990052,10.9375 C55.3395843,10.9375 54.9865723,11.0832977 54.7328949,11.3380433 C54.4781494,11.5922546 54.3318177,11.9447327 54.3318177,12.3046875 C54.3318177,12.6641082 54.4781494,13.0165863 54.7328949,13.2707977 C54.9865723,13.5250091 55.3395843,13.671875 55.6990052,13.671875 Z" id="Path"></path>
            <path d="M43.8317108,49.9391937 C43.5780335,50.1934051 43.4311676,50.5458831 43.4311676,50.905304 C43.4311676,51.2663268 43.5774994,51.6177368 43.8317108,51.8719482 C44.0864564,52.1266937 44.4389343,52.2724915 44.7983551,52.2724915 C45.1583099,52.2724915 45.5107879,52.1266937 45.7649994,51.8719482 C46.0192108,51.6177368 46.1655426,51.2663268 46.1655426,50.905304 C46.1655426,50.5458831 46.0192108,50.1934051 45.7649994,49.9391937 C45.5107879,49.6844482 45.1583099,49.5381165 44.7983551,49.5381165 C44.4389343,49.5381165 44.0864564,49.6844482 43.8317108,49.9391937 Z" id="Path"></path>
        </g>
    </g>
</svg>