<?xml version="1.0" encoding="UTF-8"?>
<svg width="49px" height="40px" viewBox="0 0 49 40" version="1.1" xmlns="http://www.w3.org/2000/svg" xmlns:xlink="http://www.w3.org/1999/xlink">
    <!-- Generator: Sketch 51.3 (57544) - http://www.bohemiancoding.com/sketch -->
    <title>corkscrew</title>
    <desc>Created with Sketch.</desc>
    <defs></defs>
    <g id="Symbols" stroke="none" stroke-width="1" fill="none" fill-rule="evenodd">
        <g id="footer" transform="translate(-1228.000000, -95.000000)" fill="#D1D13D">
            <g id="Newsletter">
                <g>
                    <g transform="translate(934.000000, 48.000000)">
                        <g id="adhesion/newsletter" transform="translate(1.000000, 42.000000)">
                            <g id="Group">
                                <g id="corkscrew" transform="translate(317.500000, 25.000000) scale(1, -1) rotate(90.000000) translate(-317.500000, -25.000000) translate(297.000000, 0.000000)">
                                    <path d="M33.6683168,1.5 L24.5594059,1.5 C24.0125309,1.5 23.5693069,1.91967769 23.5693069,2.4375 C23.5693069,2.95532231 24.0125309,3.375 24.5594059,3.375 L33.6683168,3.375 C35.8256497,3.375 37.6573329,4.71533203 38.2865872,6.5625 L35.7595143,6.5625 C34.6251547,6.5625 33.518255,7.00195313 32.7230817,7.76806641 L32.2110149,8.26135256 C31.7855817,8.67114263 31.1938428,8.90625 30.5870204,8.90625 L28.4207921,8.90625 C27.873917,8.90625 27.4306931,9.32592769 27.4306931,9.84375 C27.4306931,10.3615723 27.873917,10.78125 28.4207921,10.78125 L30.5870204,10.78125 C31.72138,10.78125 32.8282797,10.3417969 33.623453,9.57568359 L34.1355198,9.08239744 C34.560953,8.67260738 35.1526919,8.4375 35.7595143,8.4375 L38.4946628,8.4375 C38.2459777,10.7512208 36.1764387,12.5625 33.6683168,12.5625 L7.33168317,12.5625 C5.2172803,12.5625 3.41576426,11.2749023 2.75286198,9.48449709 L4.21171099,9.48449709 C5.44430693,9.48449709 6.60767327,9.03442388 7.48754644,8.21667478 L7.97679455,7.76220703 C8.4842203,7.29089353 9.15485762,7.03125 9.86571782,7.03125 L14.8811881,7.03125 C15.4280632,7.03125 15.8712871,6.61157231 15.8712871,6.09375 C15.8712871,5.57592769 15.4280632,5.15625 14.8811881,5.15625 L9.86571782,5.15625 C8.63312188,5.15625 7.46975554,5.60632322 6.58988238,6.42407231 L6.10063426,6.87854006 C5.59320851,7.34985356 4.92257119,7.60949709 4.21171099,7.60949709 L2.49644178,7.60949709 C2.69098079,5.24377444 4.78449881,3.375 7.33168317,3.375 L16.2425743,3.375 C16.7894493,3.375 17.2326733,2.95532231 17.2326733,2.4375 C17.2326733,1.91967769 16.7894493,1.5 16.2425743,1.5 L7.33168317,1.5 C3.56466584,1.5 0.5,4.40185547 0.5,7.96875 C0.5,11.5356445 3.56466584,14.4375 7.33168317,14.4375 L16.6103806,14.4375 L16.6103806,19.5194092 C16.6103806,20.7542724 17.6712562,21.7591553 18.975789,21.7591553 L19.509901,21.7591553 L19.509901,22.9006348 C19.509901,23.4931641 19.1757426,24.048706 18.6373762,24.3504638 L16.8505569,25.3535156 C15.9938892,25.8343506 15.4996133,26.7172852 15.5607209,27.658081 C15.6214418,28.5992432 16.2255569,29.4188232 17.1375309,29.7971192 L20.2250154,31.0777588 C20.5611077,31.2172852 20.6133199,31.5014648 20.6202816,31.6168213 C20.6272432,31.732544 20.6086788,32.0203857 20.291151,32.1943359 L18.4293008,33.2149658 C17.6360613,33.6496583 17.143719,34.427124 17.1123917,35.2943115 C17.0810644,36.161499 17.5157797,36.9686279 18.2753713,37.4538574 L20.626083,38.954956 C20.890625,39.1241455 20.9180848,39.3764648 20.917698,39.4768067 C20.9173113,39.5775146 20.8875309,39.8298339 20.6218286,39.9968261 L18.8075495,41.1368408 C18.105198,41.5777588 17.6762841,42.2878418 17.6302599,43.0843506 C17.5842357,43.8808594 17.9284499,44.6308594 18.575495,45.1420898 L19.4990718,45.871582 L19.4990718,48.5625 C19.4990718,49.0803223 19.9422958,49.5 20.4891708,49.5 C21.035659,49.5 21.4792698,49.0803223 21.4792698,48.5625 L21.4792698,45.4328614 C21.4792698,45.1549073 21.3489326,44.8912354 21.123453,44.7132568 L19.8440594,43.7025146 C19.682008,43.5743408 19.5957612,43.3864746 19.6073639,43.1868896 C19.6189665,42.9873047 19.7264851,42.8096924 19.9024598,42.6990967 L21.7167388,41.559082 C22.453125,41.0961914 22.8944152,40.3205567 22.897896,39.4837646 C22.9013768,38.6473388 22.465888,37.8684083 21.7329827,37.4003906 L19.3826578,35.899292 C19.1084467,35.7242432 19.0875619,35.4627685 19.0914295,35.3583984 C19.095297,35.2540283 19.1347463,34.9943848 19.4213336,34.8372803 L21.2831838,33.8166504 C22.1495204,33.3416748 22.6534653,32.458374 22.5973855,31.5120849 C22.5413057,30.5654297 21.9368039,29.7407227 21.019802,29.3602295 L17.9319307,28.0795898 C17.5977723,27.9407959 17.5443998,27.6584473 17.5370514,27.5438232 C17.529703,27.428833 17.5463336,27.142456 17.8603806,26.9663086 L19.6471999,25.963623 C20.78388,25.3256836 21.490099,24.1519776 21.490099,22.9006348 L21.490099,21.7591553 L22.024211,21.7591553 C23.3287438,21.7591553 24.3896194,20.7542724 24.3896194,19.519043 L24.3896194,14.4375 L33.6683168,14.4375 C37.4353342,14.4375 40.5,11.5356445 40.5,7.96875 C40.5,4.40185547 37.4353342,1.5 33.6683168,1.5 Z M22.4094214,19.5194092 C22.4094214,19.7204589 22.2365408,19.8841553 22.024211,19.8841553 L20.605198,19.8841553 C20.5703899,19.8804932 20.5355817,19.8786621 20.5,19.8786621 C20.4644183,19.8786621 20.4292234,19.8804932 20.394802,19.8841553 L18.9754022,19.8841553 C18.7630724,19.8841553 18.5901919,19.7204589 18.5901919,19.5194092 L18.5901919,14.4375 L22.4094214,14.4375 L22.4094214,19.5194092 Z" id="Shape" fill-rule="nonzero"></path>
                                    <path d="M21,9.5 C22.3785807,9.5 23.5,8.37858075 23.5,7 C23.5,5.62141925 22.3785807,4.5 21,4.5 C19.6214192,4.5 18.5,5.62141925 18.5,7 C18.5,8.37858075 19.6214192,9.5 21,9.5 Z M21,6.16666667 C21.4596354,6.16666667 21.8333333,6.54036458 21.8333333,7 C21.8333333,7.45963542 21.4596354,7.83333333 21,7.83333333 C20.5403646,7.83333333 20.1666667,7.45963542 20.1666667,7 C20.1666667,6.54036458 20.5403646,6.16666667 21,6.16666667 Z" id="Shape" fill-rule="nonzero"></path>
                                    <path d="M21.5,2.5 C21.7628906,2.5 22.0210938,2.3929688 22.2070312,2.20703129 C22.3929688,2.02109379 22.5,1.76328128 22.5,1.49999997 C22.5,1.23593757 22.3929688,0.978906262 22.2070312,0.792968757 C22.0210938,0.606249953 21.7628906,0.5 21.5,0.5 C21.2371094,0.5 20.9789062,0.606249953 20.7929688,0.792968757 C20.6070312,0.978906262 20.5,1.23593757 20.5,1.49999997 C20.5,1.76328128 20.6070312,2.02109379 20.7929688,2.20703129 C20.9789062,2.3929688 21.2371094,2.5 21.5,2.5 Z" id="Path"></path>
                                </g>
                            </g>
                        </g>
                    </g>
                </g>
            </g>
        </g>
    </g>
</svg>