<?xml version="1.0" encoding="UTF-8"?>
<svg width="70px" height="70px" viewBox="0 0 70 70" version="1.1" xmlns="http://www.w3.org/2000/svg" xmlns:xlink="http://www.w3.org/1999/xlink">
    <!-- Generator: Sketch 52.5 (67469) - http://www.bohemiancoding.com/sketch -->
    <title>picto/icon-tasting</title>
    <desc>Created with Sketch.</desc>
    <g id="picto/icon-tasting" stroke="none" stroke-width="1" fill="none" fill-rule="evenodd">
        <g id="icon-wine-tasting" transform="translate(6.000000, 0.000000)" fill="#000000">
            <path d="M17.4394531,9.56054695 C17.7183595,9.840625 18.105078,10 18.5,10 C18.8943359,10 19.2816405,9.83945305 19.5605469,9.56054695 C19.839453,9.28105465 20,8.89550785 20,8.5 C20,8.10507805 19.839453,7.71835945 19.5605469,7.43945305 C19.2816405,7.16054695 18.8943359,7 18.5,7 C18.105078,7 17.7183595,7.1599609 17.4394531,7.43945305 C17.160547,7.71835945 17,8.10507805 17,8.5 C17,8.8943359 17.160547,9.28105465 17.4394531,9.56054695 Z" id="Path"></path>
            <path d="M58.7010633,38.2801781 C57.7803455,36.6924245 55.4211404,37.0384939 54.6458274,37.1517141 C53.8946591,37.26173 53.0297424,37.4566611 52.0596622,37.733303 C52.1723373,37.1629293 51.9088918,36.5621144 51.3691238,36.2689168 C50.7038033,35.9078938 49.8689333,36.1519581 49.5056898,36.8152578 L48.0596907,39.455639 C47.8552657,39.8294794 47.837023,40.2764856 48.0103283,40.6652796 C48.1841701,41.0540736 48.5297075,41.3403285 48.9449964,41.4396632 L51.2156709,41.9817318 C51.3235172,42.0079006 51.430827,42.0201839 51.5370635,42.0201839 C52.1578505,42.0201839 52.7206903,41.5988124 52.871997,40.9718288 C52.9235057,40.7587397 52.9202865,40.5456507 52.8736067,40.3459131 C54.6409985,39.8460351 55.6057132,39.7675287 56.0886071,39.7819481 C55.7393138,40.4308283 54.6350964,41.9443478 51.167918,44.7267883 C48.4245439,46.9281741 44.8860045,49.3624089 40.9901236,51.7400337 L35.0156526,41.4396632 C35.8016967,40.7630122 36.5405244,40.0281488 37.2230145,39.2398797 C40.77926,35.132442 42.2864256,29.7122906 41.358196,24.3690436 C40.6333187,20.197519 38.4463458,16.3939601 35.1996889,13.6590507 L19.3693528,0.323630458 C18.9267,-0.049141873 18.2967917,-0.105217895 17.7951186,0.183173253 L0.68672322,10.0151751 C0.185050048,10.3030322 -0.0810781338,10.8744739 0.0219392103,11.4421772 L3.70963915,31.7555953 C4.46617304,35.9217793 6.68158304,39.7087823 9.94862885,42.419125 C13.2451847,45.1540344 17.3395886,46.6104097 21.5455948,46.6104097 C22.6782493,46.6104097 23.8194885,46.5046664 24.954826,46.2899751 C25.9849997,46.0950441 26.9963941,45.8248109 27.9814978,45.4835481 L29.7392317,48.5143253 C25.1114981,51.3795449 21.0455313,54.2954997 18.2318693,56.7713913 C14.5119764,60.0435626 13.2725486,62.2257223 14.2125821,63.8465875 C14.6879644,64.6663659 15.5775623,65.0781244 16.9532735,65.0781244 C18.5017534,65.0781244 20.6667279,64.5568841 23.5512143,63.5106651 C26.9615184,62.2732534 31.0376798,60.4040516 35.3155834,58.1278976 L35.5248374,58.4878526 C35.9084698,59.1495501 35.8558881,59.9698627 35.3907002,60.5776203 L31.3252699,65.8904261 C30.5751746,66.870956 30.6223909,68.2012937 31.440628,69.1262816 C31.9465934,69.6987915 32.64518,70 33.3582534,70 C33.7971503,70 34.2419493,69.8857116 34.6502629,69.6507262 L52.700838,59.278258 C53.773399,58.6614213 54.2455619,57.4154648 53.8490523,56.2480146 C53.4530794,55.0800306 52.3193518,54.3740062 51.0901184,54.5315533 L44.4492538,55.3817731 C43.6873545,55.4789715 42.9469172,55.1142102 42.5632847,54.4525127 L42.3647617,54.1101818 C46.8132878,51.399839 50.7762374,48.6350224 53.7390599,46.1623353 C58.181684,42.4549069 59.7124577,40.0238764 58.7010633,38.2801781 Z M18.332204,3.03237102 L31.9342529,14.4911127 L29.0197197,16.1653834 L23.1461199,11.217339 C22.5671837,10.7297444 21.7006573,10.801308 21.2102518,11.3780903 C20.7203826,11.9543386 20.7922802,12.8168418 21.3717529,13.3049704 L26.4920383,17.6185544 L6.06562501,29.3566082 L2.8967678,11.902535 L18.332204,3.03237102 Z M24.4424218,43.6036651 C19.900536,44.4624298 15.2588524,43.2650724 11.7074358,40.3186762 C9.18029095,38.2219657 7.39787573,35.3647571 6.6155875,32.198329 L34.1314202,16.3854152 C36.4954543,18.643411 38.0900773,21.6079653 38.6507708,24.8352759 C39.438961,29.3694255 38.1598286,33.9692645 35.1417416,37.4550588 C32.3876366,40.6364404 28.5877979,42.8202024 24.4424218,43.6036651 Z M32.8088274,43.1048551 L38.6330647,53.1456736 C38.3921542,53.2861308 38.1507073,53.426588 37.9081873,53.565977 C37.388808,53.8645153 36.8699653,54.1571789 36.3516592,54.4461041 L30.5327873,44.4132964 C31.3172217,44.0234343 32.0775113,43.5865752 32.8088274,43.1048551 Z M23.5876995,60.5760181 C19.4326655,62.1739187 17.5617199,62.3683158 16.8250384,62.3453513 C17.1399924,61.7610921 18.0671488,60.4761494 20.7853051,58.1893143 C23.4197597,55.9719068 27.0645357,53.3956126 31.1133331,50.8839394 L33.9409453,55.7582837 C30.2237351,57.7316269 26.6460278,59.4000231 23.5876995,60.5760181 Z M40.1842274,55.8202344 C41.1237242,57.4400314 42.935113,58.3324418 44.7996202,58.0942521 L50.5476675,57.3583206 L34.0557668,66.8357083 L37.5760635,62.2348013 C38.7140835,60.7474507 38.8428552,58.7399278 37.9033584,57.121199 L37.7257607,56.8141159 C38.2429937,56.5257246 38.7618365,56.2330611 39.2817522,55.9345228 C39.5248088,55.7945997 39.7662558,55.6546766 40.0066297,55.5147534 L40.1842274,55.8202344 Z" id="Shape" fill-rule="nonzero"></path>
        </g>
    </g>
</svg>