<?xml version="1.0" encoding="UTF-8"?>
<svg width="40px" height="30px" viewBox="0 0 40 30" version="1.1" xmlns="http://www.w3.org/2000/svg" xmlns:xlink="http://www.w3.org/1999/xlink">
    <!-- Generator: Sketch 51.3 (57544) - http://www.bohemiancoding.com/sketch -->
    <title>corkscrew</title>
    <desc>Created with Sketch.</desc>
    <defs></defs>
    <g id="Symbols" stroke="none" stroke-width="1" fill="none" fill-rule="evenodd">
        <g id="footer" transform="translate(-1250.000000, -90.000000)" fill="#FFFFFF">
            <g id="Newsletter">
                <g>
                    <g>
                        <g>
                            <g transform="translate(1035.000000, 48.000000)">
                                <g id="adhesion/newsletter" transform="translate(0.000000, 37.000000)">
                                    <g id="Group">
                                        <g id="corkscrew" transform="translate(235.000000, 20.000000) scale(1, -1) rotate(90.000000) translate(-235.000000, -20.000000) translate(220.000000, 0.000000)">
                                            <path d="M24.6353538,1.2 L17.970297,1.2 C17.5701446,1.2 17.2458343,1.53574215 17.2458343,1.95 C17.2458343,2.36425785 17.5701446,2.7 17.970297,2.7 L24.6353538,2.7 C26.21389,2.7 27.554146,3.77226563 28.014576,5.25 L26.1654982,5.25 C25.335479,5.25 24.5255524,5.6015625 23.9437183,6.21445313 L23.5690353,6.60908205 C23.2577427,6.9369141 22.824763,7.125 22.3807466,7.125 L20.7957015,7.125 C20.395549,7.125 20.0712388,7.46074215 20.0712388,7.875 C20.0712388,8.28925785 20.395549,8.625 20.7957015,8.625 L22.3807466,8.625 C23.2107659,8.625 24.0206925,8.2734375 24.6025266,7.66054688 L24.9772096,7.26591795 C25.2885022,6.9380859 25.7214819,6.75 26.1654982,6.75 L28.1668264,6.75 C27.9848617,8.6009766 26.4705649,10.05 24.6353538,10.05 L5.36464622,10.05 C3.81752217,10.05 2.4993397,9.01992188 2.01428925,7.58759768 L3.08173975,7.58759768 C3.98363922,7.58759768 4.83488288,7.2275391 5.47869251,6.57333983 L5.83667894,6.20976563 C6.20796607,5.83271483 6.69867631,5.625 7.21881792,5.625 L10.8886742,5.625 C11.2888267,5.625 11.6131369,5.28925785 11.6131369,4.875 C11.6131369,4.46074215 11.2888267,4.125 10.8886742,4.125 L7.21881792,4.125 C6.31691845,4.125 5.46567479,4.48505858 4.82186515,5.13925785 L4.46387872,5.50283205 C4.0925916,5.87988285 3.60188136,6.08759768 3.08173975,6.08759768 L1.82666472,6.08759768 C1.96901034,4.19501955 3.50085279,2.7 5.36464622,2.7 L11.8848104,2.7 C12.2849629,2.7 12.6092731,2.36425785 12.6092731,1.95 C12.6092731,1.53574215 12.2849629,1.2 11.8848104,1.2 L5.36464622,1.2 C2.60829208,1.2 0.365853659,3.52148438 0.365853659,6.375 C0.365853659,9.22851563 2.60829208,11.55 5.36464622,11.55 L12.153937,11.55 L12.153937,15.6155273 C12.153937,16.603418 12.9301875,17.4073242 13.8847237,17.4073242 L14.2755373,17.4073242 L14.2755373,18.3205079 C14.2755373,18.7945313 14.0310312,19.2389648 13.6371046,19.4803711 L12.3296758,20.2828125 C11.7028458,20.6674805 11.3411804,21.3738281 11.3858933,22.1264648 C11.4303233,22.8793946 11.8723587,23.5350586 12.5396567,23.8376954 L14.7987918,24.8622071 C15.044713,24.9738281 15.082917,25.2011719 15.0880109,25.2934571 C15.0931048,25.3860352 15.0795211,25.6163086 14.8471837,25.7554688 L13.4848542,26.5719727 C12.9044351,26.9197266 12.5441846,27.5416992 12.5212622,28.2354492 C12.4983398,28.9291992 12.8164242,29.5749023 13.3722229,29.9630859 L15.0922558,31.1639648 C15.2858231,31.2993164 15.3059157,31.5011719 15.3056327,31.5814454 C15.3053497,31.6620117 15.2835592,31.8638672 15.0891429,31.9974609 L13.7616216,32.9094727 C13.2477059,33.2622071 12.9338664,33.8302734 12.9001902,34.4674805 C12.866514,35.1046875 13.118378,35.7046875 13.5918256,36.1136719 L14.2676135,36.6972656 L14.2676135,38.85 C14.2676135,39.2642579 14.5919238,39.6 14.9920762,39.6 C15.3919456,39.6 15.7165389,39.2642579 15.7165389,38.85 L15.7165389,36.3462891 C15.7165389,36.1239258 15.6211702,35.9129883 15.4561851,35.7706055 L14.5200435,34.9620117 C14.4014693,34.8594727 14.3383618,34.7091797 14.3468516,34.5495117 C14.3553414,34.3898438 14.4340135,34.2477539 14.5627755,34.1592773 L15.8902967,33.2472656 C16.4291158,32.8769531 16.7520112,32.2564454 16.7545581,31.5870117 C16.757105,30.9178711 16.4384546,30.2947266 15.9021824,29.9203125 L14.1824326,28.7194336 C13.9817903,28.5793946 13.9665087,28.3702148 13.9693387,28.2867188 C13.9721686,28.2032227 14.0010339,27.9955079 14.2107319,27.8698242 L15.5730613,27.0533204 C16.2069661,26.6733398 16.5757064,25.9666992 16.5346723,25.209668 C16.4936383,24.4523438 16.0513199,23.7925781 15.3803429,23.4881836 L13.1209249,22.4636719 C12.8764187,22.3526367 12.8373657,22.1267579 12.8319888,22.0350586 C12.8266119,21.9430664 12.8387807,21.7139648 13.0685712,21.5730469 L14.3759999,20.7708984 C15.2077171,20.2605469 15.7244627,19.3215821 15.7244627,18.3205079 L15.7244627,17.4073242 L16.1152763,17.4073242 C17.0698125,17.4073242 17.846063,16.603418 17.846063,15.6152344 L17.846063,11.55 L24.6353538,11.55 C27.3917079,11.55 29.6341463,9.22851563 29.6341463,6.375 C29.6341463,3.52148438 27.3917079,1.2 24.6353538,1.2 Z M16.3971376,15.6155273 C16.3971376,15.7763672 16.2706396,15.9073242 16.1152763,15.9073242 L15.0769742,15.9073242 C15.0515048,15.9043946 15.0260354,15.9029297 15,15.9029297 C14.9739646,15.9029297 14.9482122,15.9043946 14.9230258,15.9073242 L13.8844406,15.9073242 C13.7290773,15.9073242 13.6025794,15.7763672 13.6025794,15.6155273 L13.6025794,11.55 L16.3971376,11.55 L16.3971376,15.6155273 Z" id="Shape" fill-rule="nonzero"></path>
                                            <path d="M15.3658537,7.6 C16.3745713,7.6 17.195122,6.7028646 17.195122,5.6 C17.195122,4.4971354 16.3745713,3.6 15.3658537,3.6 C14.357136,3.6 13.5365854,4.4971354 13.5365854,5.6 C13.5365854,6.7028646 14.357136,7.6 15.3658537,7.6 Z M15.3658537,4.93333333 C15.7021723,4.93333333 15.9756098,5.23229167 15.9756098,5.6 C15.9756098,5.96770833 15.7021723,6.26666667 15.3658537,6.26666667 C15.0295351,6.26666667 14.7560976,5.96770833 14.7560976,5.6 C14.7560976,5.23229167 15.0295351,4.93333333 15.3658537,4.93333333 Z" id="Shape" fill-rule="nonzero"></path>
                                            <path d="M15.7317073,2 C15.9240663,2 16.1129955,1.91437504 16.2490472,1.76562503 C16.3850991,1.61687503 16.4634146,1.41062503 16.4634146,1.19999998 C16.4634146,0.988750055 16.3850991,0.78312501 16.2490472,0.634375006 C16.1129955,0.484999962 15.9240663,0.4 15.7317073,0.4 C15.5393483,0.4 15.3504192,0.484999962 15.2143674,0.634375006 C15.0783155,0.78312501 15,0.988750055 15,1.19999998 C15,1.41062503 15.0783155,1.61687503 15.2143674,1.76562503 C15.3504192,1.91437504 15.5393483,2 15.7317073,2 Z" id="Path"></path>
                                        </g>
                                    </g>
                                </g>
                            </g>
                        </g>
                    </g>
                </g>
            </g>
        </g>
    </g>
</svg>