<?xml version="1.0" encoding="UTF-8"?>
<svg width="40px" height="40px" viewBox="0 0 40 40" version="1.1" xmlns="http://www.w3.org/2000/svg" xmlns:xlink="http://www.w3.org/1999/xlink">
    <!-- Generator: Sketch 52.5 (67469) - http://www.bohemiancoding.com/sketch -->
    <title>icon-loupe</title>
    <desc>Created with Sketch.</desc>
    <g id="Symbols" stroke="none" stroke-width="1" fill="none" fill-rule="evenodd">
        <g id="searchBar/hover" transform="translate(-417.000000, -5.000000)" fill="#FFFFFF">
            <g id="icon-loupe" transform="translate(417.000000, 5.000000)">
                <path d="M26,16 C25.448,16 25,16.448 25,17 C25,17.552 25.448,18 26,18 C26.552,18 27,17.552 27,17 C27,16.448 26.552,16 26,16 Z" id="Path"></path>
                <path d="M39.0844531,34.6655469 L28.6563281,24.2374219 C30.3551562,21.6785156 31.25,18.7152344 31.25,15.625 C31.25,7.009375 24.240625,0 15.625,0 C7.009375,0 0,7.009375 0,15.625 C0,24.240625 7.009375,31.25 15.625,31.25 C18.7153125,31.25 21.6785937,30.3550781 24.2374219,28.6564062 L27.1198437,31.5388281 C27.1202344,31.5392187 27.120625,31.5396094 27.1210937,31.5400781 L34.6654687,39.0844531 C35.2559375,39.6748437 36.0405469,40 36.875,40 C37.7094531,40 38.4940625,39.6748437 39.0842187,39.0846875 C39.6747656,38.4946094 40,37.7099219 40,36.875 C40,36.0400781 39.6747656,35.2553906 39.0844531,34.6655469 Z M23.87,27.0099219 C23.87,27.01 23.8699219,27.01 23.8698437,27.0100781 C21.4583594,28.7616406 18.6074219,29.6875 15.625,29.6875 C7.8709375,29.6875 1.5625,23.3790625 1.5625,15.625 C1.5625,7.8709375 7.8709375,1.5625 15.625,1.5625 C23.3790625,1.5625 29.6875,7.8709375 29.6875,15.625 C29.6875,18.6074219 28.7616406,21.4583594 27.01,23.8699219 C26.1336719,25.0771875 25.0772656,26.1336719 23.87,27.0099219 Z M25.5090625,27.7182031 C26.3176563,27.0567187 27.0567969,26.3175781 27.7182031,25.5090625 L29.9346875,27.7255469 C29.260625,28.5210937 28.5210937,29.2607031 27.7255469,29.9346875 L25.5090625,27.7182031 Z M37.9796094,37.9796094 C37.6842969,38.2749219 37.2920312,38.4375 36.875,38.4375 C36.4579687,38.4375 36.0657031,38.2749219 35.7703906,37.9796094 L28.8332812,31.0425 C29.6244531,30.3635156 30.3635156,29.6245312 31.0424219,28.8333594 L37.9797656,35.7707031 C38.2749219,36.0655469 38.4375,36.4576562 38.4375,36.875 C38.4375,37.2923437 38.2749219,37.6844531 37.9796094,37.9796094 Z" id="Shape" fill-rule="nonzero"></path>
                <path d="M26.9455691,11.6509381 C26.2439651,9.42612753 25.0223707,7.52394031 23.4126983,6.15016048 C21.7647314,4.74352272 19.8289854,4 17.8147765,4 C17.3648569,4 17,4.44452533 17,4.9926872 C17,5.54084908 17.3648569,5.98537441 17.8147765,5.98537441 C21.1634263,5.98537441 24.2214454,8.54829423 25.4244629,12.3630919 C25.5489607,12.7577843 25.8576795,13 26.1852197,13 C26.282341,13 26.3811734,12.9786572 26.4772356,12.9336885 C26.8972529,12.7370372 27.1069763,12.1627676 26.9455691,11.6509381 Z" id="Path"></path>
            </g>
        </g>
    </g>
</svg>