<?xml version="1.0" encoding="UTF-8"?>
<svg width="33px" height="50px" viewBox="0 0 33 50" version="1.1" xmlns="http://www.w3.org/2000/svg" xmlns:xlink="http://www.w3.org/1999/xlink">
    <!-- Generator: Sketch 52.5 (67469) - http://www.bohemiancoding.com/sketch -->
    <title>icon-mouse</title>
    <desc>Created with Sketch.</desc>
    <g id="home" stroke="none" stroke-width="1" fill="none" fill-rule="evenodd">
        <g id="Desktop-HD" transform="translate(-704.000000, -605.000000)" fill="#FFFFFF">
            <g id="icon-mouse" transform="translate(704.000000, 605.000000)">
                <path d="M16.5,0 C7.40168668,0 0,7.47336204 0,16.6585874 L0,33.3423632 C0,42.5273509 7.40168668,50 16.5,50 C25.5983133,50 33,42.5275885 33,33.3423632 L33,16.6585874 C33,7.47336204 25.5980781,0 16.5,0 Z M31.1666928,33.3423632 C31.1666928,41.5065062 24.5872066,48.1481746 16.5,48.1481746 C8.41279335,48.1481746 1.83330719,41.5065062 1.83330719,33.3423632 L1.83330719,16.6585874 C1.83330719,8.49444428 8.41279335,1.85182545 16.5,1.85182545 C24.5872066,1.85182545 31.1666928,8.49420666 31.1666928,16.6585874 L31.1666928,33.3423632 Z" id="Shape" fill-rule="nonzero"></path>
                <path d="M17,4 C16.4477803,4 16,4.44505571 16,4.99505571 L16,14.0049443 C16,14.5549443 16.4477803,15 17,15 C17.5522197,15 18,14.5549443 18,14.0049443 L18,4.99505571 C17.9997434,4.44505571 17.5522197,4 17,4 Z" id="Shape"></path>
            </g>
        </g>
    </g>
</svg>