<?xml version="1.0" encoding="UTF-8"?>
<svg width="70px" height="70px" viewBox="0 0 70 70" version="1.1" xmlns="http://www.w3.org/2000/svg" xmlns:xlink="http://www.w3.org/1999/xlink">
    <!-- Generator: Sketch 52.5 (67469) - http://www.bohemiancoding.com/sketch -->
    <title>picto/icon-waiter</title>
    <desc>Created with Sketch.</desc>
    <g id="picto/icon-waiter" stroke="none" stroke-width="1" fill="none" fill-rule="evenodd">
        <g id="icon-waiter" fill="#000000">
            <path d="M12.5,62 C12.11,62 11.72,62.165 11.435,62.435 C11.15,62.72 11,63.095 11,63.5 C11,63.89 11.165,64.28 11.435,64.565 C11.72,64.85 12.095,65 12.5,65 C12.89,65 13.28,64.835 13.565,64.565 C13.85,64.28 14,63.905 14,63.5 C14,63.11 13.835,62.72 13.565,62.435 C13.28,62.165 12.89,62 12.5,62 Z" id="Path"></path>
            <path d="M31.5,51 C31.89,51 32.28,50.835 32.565,50.565 C32.85,50.28 33,49.905 33,49.5 C33,49.095 32.835,48.72 32.565,48.435 C32.295,48.15 31.905,48 31.5,48 C31.11,48 30.72,48.165 30.435,48.435 C30.15,48.72 30,49.095 30,49.5 C30,49.905 30.165,50.28 30.435,50.565 C30.72,50.835 31.095,51 31.5,51 Z" id="Path"></path>
            <path d="M31.5,55 C31.89,55 32.28,54.835 32.565,54.565 C32.85,54.28 33,53.905 33,53.5 C33,53.11 32.835,52.72 32.565,52.435 C32.28,52.15 31.905,52 31.5,52 C31.11,52 30.72,52.165 30.435,52.435 C30.15,52.72 30,53.095 30,53.5 C30,53.89 30.165,54.28 30.435,54.565 C30.72,54.835 31.095,55 31.5,55 Z" id="Path"></path>
            <path d="M33,58.5 C33,58.11 32.835,57.72 32.565,57.435 C32.28,57.15 31.905,57 31.5,57 C31.11,57 30.72,57.165 30.435,57.435 C30.15,57.705 30,58.095 30,58.5 C30,58.905 30.165,59.28 30.435,59.565 C30.72,59.85 31.095,60 31.5,60 C31.89,60 32.28,59.835 32.565,59.565 C32.835,59.28 33,58.89 33,58.5 Z" id="Path"></path>
            <path d="M67.2382812,34.4667969 L55.8085938,34.4667969 C55.0566406,34.4667969 54.4414062,35.0820312 54.4414062,35.8339844 L53.3886719,45.1582031 C52.5546875,44.7480469 51.3378906,44.3925781 50.4355469,44.1191406 L40.1816406,40.8925781 L40.1816406,38.6777344 C40.1816406,38.1855469 39.921875,37.734375 39.484375,37.4882812 C39.3203125,37.3925781 39.1425781,37.3378906 38.9648438,37.3242188 C41.7402344,35.6152344 43.8730469,32.9765625 44.953125,29.8457031 C44.9941406,29.8457031 45.0351563,29.8457031 45.0761719,29.8457031 C48.5488281,29.8457031 51.3652344,27.0292969 51.3652344,23.5566406 C51.3652344,20.3027344 48.890625,17.6230469 45.71875,17.2949219 L45.71875,15.2304687 C47.7421875,12.8652344 48.9726562,9.7890625 48.9726562,6.42578125 L48.9726562,1.3671875 C48.9726562,0.615234375 48.3574219,0 47.6054688,0 L29.6816406,0 C22.859375,0 17.2949219,5.55078125 17.2949219,12.3867188 L17.2949219,17.28125 C14.1367187,17.609375 11.6484375,20.2890625 11.6484375,23.5429688 C11.6484375,27.015625 14.4648438,29.8320313 17.9375,29.8320313 C17.9785156,29.8320313 18.0195312,29.8320313 18.0605469,29.8320313 C19.140625,32.9628906 21.2734375,35.6015625 24.0488281,37.3105469 C23.8710937,37.3242188 23.6933594,37.3925781 23.5292969,37.4746094 C23.1054687,37.7207031 22.8320312,38.171875 22.8320312,38.6640625 L22.8320312,40.8652344 L12.578125,44.1191406 C8.90039063,45.2539063 5.7421875,47.4960938 3.45898438,50.5996094 C1.203125,53.6894531 0,57.3671875 0,61.2089844 L0,68.6328125 C0,69.3847656 0.615234375,70 1.3671875,70 L65.3789062,70 C66.1308594,70 66.7460938,69.3847656 66.7460938,68.6328125 C66.7460938,67.8808594 66.1308594,67.265625 65.3789062,67.265625 L62.890625,67.265625 L62.890625,60.1972656 C66.9101562,59.5410156 70,56.0410156 70,51.8300781 L68.6054688,35.8339844 C68.6054688,35.0683594 67.9902344,34.4667969 67.2382812,34.4667969 Z M14.4101562,23.5429688 C14.4101562,21.8066406 15.6679688,20.3574219 17.3222656,20.0429688 L17.3222656,25.2109375 C17.3222656,25.8398437 17.3632813,26.4550781 17.4453125,27.0566406 C15.7226563,26.796875 14.4101562,25.3203125 14.4101562,23.5429688 Z M48.6445312,23.5429687 C48.6445312,25.3203125 47.3320313,26.796875 45.6230469,27.0566406 C45.7050781,26.4550781 45.7460938,25.8398437 45.7460938,25.2109375 L45.7460938,20.0429688 C47.3867188,20.34375 48.6445312,21.7929687 48.6445312,23.5429687 Z M20.0429688,15.7089844 L20.0429688,12.3867188 C20.0429688,7.06835938 24.3769531,2.734375 29.6953125,2.734375 L46.2519531,2.734375 L46.2519531,6.41210938 C46.2519531,12.3867188 41.3847656,17.2402344 35.4101563,17.2402344 L20.0429688,17.2402344 L20.0429688,15.7089844 Z M20.0429688,25.2109375 L20.0429688,19.9882812 L35.4101563,19.9882812 C38.2128906,19.9882812 40.8242188,19.1269531 42.9980469,17.6640625 L42.9980469,25.2109375 C42.9980469,31.5410156 37.84375,36.6953125 31.5136719,36.6953125 C25.1972656,36.6816406 20.0429688,31.5410156 20.0429688,25.2109375 Z M26.8105469,38.609375 C28.2871094,39.1289062 29.8730469,39.4160156 31.5273437,39.4160156 C33.1816406,39.4160156 34.7675781,39.1289062 36.2441406,38.609375 L31.5273437,41.4394531 L26.8105469,38.609375 Z M28.8613281,43.0253906 L25.59375,44.9804687 L25.59375,41.0703125 L28.8613281,43.0253906 Z M37.4609375,41.0703125 L37.4609375,44.9804687 L34.1933594,43.0253906 L37.4609375,41.0703125 Z M22.859375,43.7226562 L22.859375,47.4003906 C22.859375,47.8925781 23.1191406,48.34375 23.5566406,48.5898437 C23.7617188,48.7128906 23.9941406,48.7675781 24.2265625,48.7675781 C24.4726563,48.7675781 24.71875,48.6992187 24.9238281,48.5761719 L31.5273438,44.625 L38.1308594,48.5761719 C38.3496094,48.6992187 38.5957031,48.7675781 38.828125,48.7675781 C39.0605469,48.7675781 39.2929688,48.7128906 39.4980469,48.5898437 C39.921875,48.34375 40.1953125,47.8925781 40.1953125,47.4003906 L40.1953125,43.75 L43.5722656,44.8164062 L31.5410156,62.7675781 L19.4824219,44.8027344 L22.859375,43.7226562 Z M49,67.265625 L2.734375,67.265625 L2.734375,61.2089844 C2.734375,55.2890625 6.11132812,50.0390625 11.3203125,47.5507812 L11.3203125,58.5566406 C11.3203125,59.3085937 11.9355469,59.9238281 12.6875,59.9238281 C13.4394531,59.9238281 14.0546875,59.3085937 14.0546875,58.5566406 L14.0546875,46.5253906 L16.7617188,45.6640625 L30.3925781,65.9804688 C30.6523437,66.3632812 31.0761719,66.5820312 31.5273437,66.5820312 C31.9785156,66.5820312 32.4023438,66.3496094 32.6621094,65.9804688 L46.2792969,45.6777344 L48.9863281,46.5390625 L49,67.265625 Z M60.15625,67.265625 L51.734375,67.265625 L51.734375,47.5507812 C52.1855469,47.7695312 52.6230469,48.0019531 53.046875,48.2617187 L53.046875,51.8300781 C53.046875,56.0410156 56.1367188,59.5410156 60.15625,60.1972656 L60.15625,67.265625 Z M67.265625,51.8300781 C67.265625,55.0019531 64.6953125,57.5722656 61.5234375,57.5722656 C58.3515625,57.5722656 55.78125,55.0019531 55.78125,51.8300781 L55.78125,46.15625 L67.265625,46.15625 L67.265625,51.8300781 Z M67.265625,43.421875 L55.78125,43.421875 L56.2460938,37.2011719 L66.9101562,37.2011719 L67.265625,43.421875 Z" id="Shape" fill-rule="nonzero"></path>
            <path d="M43,6.39318885 C43,5.62693498 42.373065,5 41.6068111,5 C40.8405573,5 40.2136223,5.62693498 40.2136223,6.39318885 C40.2136223,9.05417957 38.0541796,11.2136223 35.3931889,11.2136223 C34.626935,11.2136223 34,11.8405573 34,12.6068111 C34,13.373065 34.626935,14 35.3931889,14 C39.5866873,14 43,10.5866873 43,6.39318885 Z" id="Path"></path>
            <path d="M30.5,11 C30.11,11 29.72,11.165 29.435,11.435 C29.15,11.705 29,12.095 29,12.5 C29,12.905 29.165,13.28 29.435,13.565 C29.705,13.85 30.095,14 30.5,14 C30.905,14 31.28,13.835 31.565,13.565 C31.85,13.295 32,12.905 32,12.5 C32,12.095 31.835,11.72 31.565,11.435 C31.295,11.15 30.89,11 30.5,11 Z" id="Path"></path>
        </g>
    </g>
</svg>