<?xml version="1.0" encoding="UTF-8"?>
<svg width="70px" height="70px" viewBox="0 0 70 70" version="1.1" xmlns="http://www.w3.org/2000/svg" xmlns:xlink="http://www.w3.org/1999/xlink">
    <!-- Generator: Sketch 52.5 (67469) - http://www.bohemiancoding.com/sketch -->
    <title>picto/icon-wine</title>
    <desc>Created with Sketch.</desc>
    <g id="picto/icon-wine" stroke="none" stroke-width="1" fill="none" fill-rule="evenodd">
        <g id="icon-wine" transform="translate(2.000000, 0.000000)" fill="#000000">
            <path d="M66.7142769,63.3937183 L62.5459679,57.9922684 C58.6103827,52.8925607 53.6094745,48.7530869 47.9162391,45.8515567 C50.9894704,42.7791283 53.0467926,38.7939969 53.7619672,34.4729439 L57.186941,13.7755751 C57.2804557,13.2132134 57.0163831,12.6519197 56.5254312,12.3672675 L35.5303306,0.183297272 C35.0388473,-0.101889093 34.4235635,-0.0506196462 33.9857449,0.311470888 L17.8650952,13.642061 C13.5310101,17.2261158 10.7935814,22.5068687 10.3541689,28.1310201 C10.3504495,28.1785513 10.3488555,28.2255483 10.3451363,28.2725452 C9.87224964,26.8311261 9.46737367,25.36247 9.13688447,23.8697815 C8.66240395,21.728214 6.80645693,20.2328551 4.62374022,20.2328551 C3.29753252,20.2328551 2.03349077,20.8064321 1.15625959,21.8061863 C0.279028423,22.8059405 -0.129566785,24.1378779 0.0362091783,25.4607364 C1.37782551,36.1749827 5.75122923,46.1992275 12.6830024,54.4498701 C13.4948796,55.4165127 14.3588273,56.3388287 15.2636878,57.2184202 L12.601177,61.8540327 L5.31659873,57.6264396 C4.66571544,57.2488614 3.8336477,57.4731653 3.45852638,58.1268507 C3.08287376,58.7810702 3.30550241,59.616869 3.9563857,59.9944471 L20.8814738,69.8162845 C21.0956012,69.9407197 21.3293878,69.999466 21.5599863,69.999466 C22.0302163,69.999466 22.4876942,69.7543339 22.7395461,69.3158734 C23.1151987,68.6621879 22.8920387,67.825855 22.2416869,67.448277 L14.9571086,63.2212179 L17.3311052,59.0881528 C20.1981794,61.4914081 23.4169959,63.4722245 26.8568471,64.9296653 L38.5679626,69.8921206 C38.7406458,69.9652863 38.9197051,70 39.0961077,70 C39.6263784,70 40.1311448,69.6859746 40.3500541,69.1636671 C40.641756,68.4677913 40.3171115,67.6661721 39.6253156,67.3724409 L27.913669,62.4105197 C22.85272,60.2657479 18.3045077,56.9033267 14.761578,52.6858807 C8.16985802,44.8400532 4.01111292,35.3076746 2.73538191,25.1194743 C2.66577722,24.5667255 2.82995929,24.0326688 3.19657914,23.6150364 C3.56266769,23.1974041 4.06955964,22.9672256 4.62374022,22.9672256 C5.52222458,22.9672256 6.28628181,23.5829931 6.48128114,24.4647207 C7.82236603,30.5161176 10.2888149,36.2075601 13.7302601,41.270418 C13.9141014,41.5502637 14.106444,41.8253029 14.3041,42.0971378 C15.8449663,44.2648741 17.5664859,46.3124477 19.4601575,48.2158258 L24.632155,53.4148681 C25.4557215,54.2426561 26.5507992,54.6982065 27.7149503,54.6982065 C28.8791014,54.6982065 29.9741791,54.2426561 30.7977457,53.4148681 C32.4969492,51.7064206 32.4969492,48.9266553 30.7977457,47.2182079 L22.0668783,38.4425877 C21.5743324,37.947517 21.3033525,37.2895591 21.3033525,36.5899448 C21.3033525,35.8903305 21.5743324,35.2323726 22.0668783,34.737836 C23.0827874,33.7161855 24.7362964,33.7161855 25.7527368,34.737836 L27.7149503,36.7101075 C32.0410654,41.0589315 37.1323002,44.3791622 42.8462576,46.5784079 C49.7780307,49.2470893 55.8469187,53.7732202 60.3961936,59.6686725 L64.5650341,65.0701223 C65.0251686,65.6666637 65.8800838,65.7750771 66.473583,65.3120501 C67.0670822,64.8490228 67.1749429,63.9902596 66.7142769,63.3937183 Z M19.5935221,15.7537212 L34.9862454,3.02501312 L38.4404426,5.02932801 L31.1335483,11.0711118 C30.5538637,11.5512288 30.4704444,12.4126623 30.9475816,12.9958524 C31.2164362,13.3242972 31.6059034,13.4941273 31.99909,13.4941273 C32.3030126,13.4941273 32.6090606,13.3921224 32.8625065,13.1827722 L40.9568367,6.48943919 L54.3485591,14.2610328 L52.0579815,28.1027151 C51.0277264,28.8429178 44.0847953,33.2654416 32.9831191,27.2583715 C25.9291394,23.4409339 20.3442959,23.5760503 16.9012567,24.3616478 C15.5569837,24.6681964 14.4241813,25.0954418 13.5156015,25.5226872 C14.4316199,21.7207372 16.5627975,18.2595156 19.5935221,15.7537212 Z M27.7149503,51.963836 C27.2771317,51.963836 26.8653484,51.7924038 26.5561126,51.4810487 L25.4785688,50.3985157 C25.5922742,50.4439106 25.7059794,50.4898394 25.8202161,50.5341661 C26.8185911,50.9202891 27.8515029,51.2279057 28.8976981,51.45488 C28.8891968,51.4634249 28.8822895,51.4730378 28.8737881,51.4815827 C28.5645521,51.7924038 28.1527689,51.963836 27.7149503,51.963836 Z M29.6383765,34.7762881 L27.676163,32.8040166 C25.5991815,30.7163889 22.2199022,30.7163889 20.1429207,32.8040166 C19.1371069,33.814986 18.582395,35.1597409 18.582395,36.5899448 C18.582395,38.0201488 19.1365756,39.3643695 20.1429207,40.3758729 L28.1761475,48.4502767 C27.7101683,48.3124901 27.2489711,48.1570796 26.7962752,47.981909 C24.2304671,46.9901657 21.8458437,45.6064246 19.7082901,43.8686041 C18.4936624,42.8811331 17.4288706,41.751069 16.5240102,40.5163299 C16.3438882,40.262653 16.1664228,40.0068398 15.9916142,39.7499585 C13.9146327,36.5835361 12.853029,32.8040166 13.0304943,28.9315712 C14.6096166,27.8234034 21.2587204,24.0198514 31.6935734,29.6658992 C36.5765257,32.3078779 40.7724641,33.0972137 44.0433513,33.0972137 C45.489109,33.0972137 46.7547448,32.9434054 47.8179425,32.7265784 C49.2998308,32.4248362 50.5298672,31.979967 51.4894549,31.5420405 L51.0782031,34.0243362 C50.4012845,38.1152108 48.3402431,41.8605508 45.2611671,44.6104088 C44.7845612,44.4069333 44.3037047,44.2114684 43.8191288,44.0245485 C38.4638213,41.9630897 33.6929803,38.8516751 29.6383765,34.7762881 Z" id="Shape" fill-rule="nonzero"></path>
            <path d="M28.5,17 C28.8943359,17 29.2816407,16.839453 29.5605469,16.5605468 C29.8394532,16.2816405 30,15.8943359 30,15.5 C30,15.105664 29.8394532,14.7183593 29.5605469,14.4394531 C29.2810548,14.1605468 28.8960937,14 28.5,14 C28.1056641,14 27.7183595,14.1605468 27.4394532,14.4394531 C27.160547,14.7183593 27,15.105664 27,15.5 C27,15.8943359 27.160547,16.2816405 27.4394532,16.5605468 C27.7183595,16.839453 28.1056641,17 28.5,17 Z" id="Path"></path>
        </g>
    </g>
</svg>