<?xml version="1.0" encoding="UTF-8"?>
<svg width="30px" height="30px" viewBox="0 0 30 30" version="1.1" xmlns="http://www.w3.org/2000/svg" xmlns:xlink="http://www.w3.org/1999/xlink">
    <!-- Generator: Sketch 52.5 (67469) - http://www.bohemiancoding.com/sketch -->
    <title>icon-facebook/</title>
    <desc>Created with Sketch.</desc>
    <g id="icon-facebook/" stroke="none" stroke-width="1" fill="none" fill-rule="evenodd">
        <g id="icon-facebook" fill="#716767">
            <path d="M28.343,0 L1.656,0 C0.742,0 0,0.742 0,1.656 L0,28.343 C0,29.259 0.742,30 1.656,30 L16.024,30 L16.024,18.382 L12.115,18.382 L12.115,13.854 L16.024,13.854 L16.024,10.515 C16.024,6.64 18.391,4.531 21.848,4.531 C23.504,4.531 24.926,4.655 25.342,4.709 L25.342,8.758 L22.944,8.759 C21.064,8.759 20.7,9.653 20.7,10.963 L20.7,13.854 L25.183,13.854 L24.599,18.381 L20.7,18.381 L20.7,30 L28.344,30 C29.259,30 30,29.259 30,28.343 L30,1.656 C30,0.742 29.259,0 28.343,0 Z" id="White_2_"></path>
        </g>
    </g>
</svg>